<svg width="425" height="500" viewBox="0 0 425 500" fill="none" xmlns="http://www.w3.org/2000/svg">
<path d="M194.492 8.58688C205.715 3.16049 218.788 3.16049 230.011 8.58688L364.704 73.713C375.927 79.1397 384.077 89.4013 386.849 101.594L420.116 247.931C422.888 260.124 419.979 272.921 412.212 282.699L319.001 400.052C311.235 409.83 299.457 415.525 287.001 415.525H137.502C125.046 415.525 113.268 409.83 105.501 400.052L12.2909 282.699C4.52444 272.921 1.61539 260.124 4.3872 247.931L37.6537 101.594C40.4255 89.4013 48.5764 79.1397 59.7991 73.713L194.492 8.58688Z" stroke="#372579" stroke-width="2.24966"/>
<path fill-rule="evenodd" clip-rule="evenodd" d="M213.62 64.8792C253.276 64.8792 291.306 80.6952 319.346 108.849C347.387 137.002 363.14 175.186 363.14 215.001C363.14 244.692 354.37 273.716 337.941 298.403C321.512 323.091 298.16 342.332 270.839 353.694C243.518 365.057 213.454 368.03 184.451 362.238C155.447 356.445 128.805 342.147 107.895 321.153C86.9839 300.157 72.7433 273.409 66.9743 244.288C61.2051 215.167 64.1661 184.983 75.4829 157.551C86.7997 130.121 105.964 106.675 130.552 90.1794C155.14 73.6835 184.048 64.8792 213.62 64.8792Z" fill="#372579"/>
<path fill-rule="evenodd" clip-rule="evenodd" d="M127.027 161.29L141.372 156.894L156.019 154.923L169.91 155.377L181.688 157.5L193.919 161.745L203.583 166.899L213.397 173.115L223.665 165.838L236.197 160.077L247.975 157.349L260.81 155.529L273.493 156.136L288.441 159.471L300.219 163.261L292.82 176.299L287.535 189.943L283.156 202.223L280.137 215.716L278.023 227.996L276.06 239.821L275.154 250.282L275.003 260.439L275.305 268.019L269.567 264.836L262.168 262.258L252.958 260.59L241.18 260.742L230.308 262.41L219.739 265.29L211.283 269.535C208.666 267.817 206.199 266.553 203.583 264.836L194.371 261.5L185.161 259.681L174.289 259.226L166.739 259.681L157.075 261.652L146.959 264.836V252.101L146.355 240.579L145.6 229.36L143.788 217.99C143.134 214.453 142.479 210.915 141.825 207.377L138.805 194.491L135.483 182.666L131.708 173.115L127.027 161.29Z" fill="white" stroke="#102A83" stroke-width="0.18137"/>
<path fill-rule="evenodd" clip-rule="evenodd" d="M316.842 120.933H323.225V121.299H316.842V120.933Z" fill="#102A83"/>
<path fill-rule="evenodd" clip-rule="evenodd" d="M325.242 120.979H329.801V121.345H325.242V120.979Z" fill="#102A83"/>
<path fill-rule="evenodd" clip-rule="evenodd" d="M316.842 121.528H323.225V121.894H316.842V121.528Z" fill="#102A83"/>
<path fill-rule="evenodd" clip-rule="evenodd" d="M325.56 121.94H329.755V122.305H325.56V121.94Z" fill="#102A83"/>
<path fill-rule="evenodd" clip-rule="evenodd" d="M316.842 122.123H323.225V122.489H316.842V122.123Z" fill="#102A83"/>
<path fill-rule="evenodd" clip-rule="evenodd" d="M316.842 122.718H323.225V123.084H316.842V122.718Z" fill="#102A83"/>
<path d="M102.017 194.058C103.084 193.171 102.172 181.42 103.285 178.705C103.335 178.584 103.5 173.053 103.939 171.276C105.135 166.44 103.667 169.525 106.48 165.368C107.849 163.345 106.848 164.021 108.921 161.836C109.087 161.662 112.484 156.66 112.668 157.545C113.978 158.227 118.188 152.38 119.552 151.704C122.316 150.335 122.706 145.397 122.401 152.327C122.32 154.168 121.454 156.228 121.454 159.425C121.454 163.193 121.034 168.364 120.023 171.941C118.996 175.576 115.833 182.307 112.824 184.695C111.731 185.563 107.381 189.558 106.353 190.005C105.528 190.365 102.531 193.631 102.017 194.058Z" fill="url(#paint0_linear_74_269)" stroke="black" stroke-width="0.1512"/>
<path d="M103.728 224.51C104.064 223.345 95.0756 212.523 94.4357 210.806C94.3081 210.463 92.3277 206.958 92.1845 206.502C90.683 201.695 88.2114 200.388 89.3943 194.873C89.8869 192.577 88.9264 189.019 90.4715 185.244C91.1305 183.633 91.9825 176.543 91.8939 174.457C91.8488 173.396 94.6055 177.862 94.8846 178.082C95.9071 178.888 102.148 187.793 102.403 188.947C103.404 193.477 105.137 192.628 105.137 199.005C105.137 202.147 104.941 203.921 104.617 206.896C104.241 210.347 104.525 213.799 103.826 217.212C103.489 218.857 104.221 222.801 103.728 224.51Z" fill="url(#paint1_linear_74_269)" stroke="black" stroke-width="0.1512"/>
<path d="M104.021 191.559C104.123 190.24 106.028 186.513 107.061 185.784C108.107 185.045 111.303 183.397 111.04 181.988C110.538 181.987 108.285 183.515 108.165 183.539C108 184.326 106.124 184.849 108.128 181.701C109.315 179.836 109.814 178.504 111.824 177.326C113.769 176.186 113.913 172.424 115.048 170.557C115.299 170.146 117.076 166.769 117.128 166.461C117.334 165.236 119.806 158.005 120.346 156.418C120.492 155.989 121.15 152.37 121.059 152.994C121.044 153.089 118.979 156.435 118.744 157.533C118.5 158.68 116.95 162.99 116.95 162.858C116.95 162.071 116.929 156.275 116.701 157.504C116.36 159.345 115.497 158.862 115.497 162.594C115.497 163.129 114.671 168.415 114.651 168.427C114.044 168.771 114.315 169.79 113.867 166.869C113.555 164.829 112.935 164.743 112.935 162.508C113.014 163.354 112.089 167.298 112.827 169.106C114.044 172.087 110.914 177.017 110.97 175.711C111.002 174.954 109.859 169.841 109.859 167.826C109.859 170.015 108.741 172.622 109.425 175.983C109.821 177.931 106.954 180.723 106.954 181.636C106.954 179.002 107.723 176.721 107.723 173.152C107.723 167.275 106.965 170.965 106.705 173.995C106.517 176.19 105.82 178.476 105.929 181.036C105.93 181.083 104.665 186.039 104.733 187.899C104.747 188.284 103.904 191.263 104.84 189.465C104.739 189.299 105.73 189.358 105.759 189.357L104.021 191.559Z" fill="url(#paint2_linear_74_269)"/>
<path d="M104.02 218.438C102.617 217.661 103.445 215.321 102.96 213.889C102.668 213.03 102.734 209.78 101.712 208.279C101.131 207.427 99.5002 202.919 100.055 201.451C100.373 200.608 102.334 189.236 100.701 194.64C100.283 196.027 99.1079 200.058 99.0997 199.993C98.7668 197.445 96.7858 196.508 96.7858 191.653C96.7858 187.221 95.8853 187.845 94.7501 183.601C94.7474 183.594 94.2658 182.973 94.3081 182.065C94.3579 180.988 93.3905 182.389 94.6792 185.732C94.7815 185.996 96.5402 192.709 95.2775 191.3C94.9459 190.93 92.8557 190.952 92.8557 189.442C92.8557 191.636 94.8415 191.014 96.0388 194.797C97.0239 197.91 98.5635 199.056 98.4094 202.995C98.393 203.416 98.7532 203.048 97.5328 202.01C94.716 199.614 96.5825 201.203 94.13 199.851C92.7356 199.082 93.6429 199.402 94.7351 201C94.7454 201.014 97.515 203.373 98.0041 203.895C98.5397 204.467 102.177 211.219 100.189 209.451C99.5547 208.887 97.8964 207.527 97.8964 207.556C97.8964 211.16 101.33 210.277 101.648 214.147C101.679 214.514 103.236 217.987 103.484 218.13L104.02 218.438Z" fill="url(#paint3_linear_74_269)"/>
<path d="M105.307 240.938C105.715 238.614 101.381 235.545 100.578 231.986C99.9788 229.327 99.6766 228.758 100.017 225.697C100.48 221.529 100.092 219.703 100.173 215.538C100.216 213.312 101.067 211.322 102.272 209.605C104.447 206.508 106.698 204.264 108.866 200.642C109.307 199.905 110.689 197.244 110.689 196.503C111.831 196.634 115.451 218.804 115.068 221.307C114.544 224.738 112.078 231.659 109.634 233.701C108.498 234.651 105.281 241.08 105.307 240.938Z" fill="url(#paint4_linear_74_269)" stroke="black" stroke-width="0.1512"/>
<path d="M108.81 260.69C109.021 261.061 109.235 260.393 106.618 259.264C104.558 258.375 101.67 258.262 99.5907 255.982C98.4105 254.688 96.9479 254.348 94.8625 251.738C90.2537 245.969 90.5532 244.38 89.6875 236.477C89.2188 232.192 90.1943 226.904 89.7509 222.408C89.4603 219.464 89.536 222.082 91.2961 223.987C92.5008 225.291 94.194 226.904 95.7466 227.697C97.6342 228.663 101.079 232.138 102.168 233.989C103.471 236.203 106.945 238.891 107.429 241.108C107.456 241.231 109.723 244.263 109.494 246.941C109.49 246.979 109.75 252.115 109.75 253.032C109.75 256.102 108.579 255.572 108.988 259.83C109.013 260.086 108.832 260.727 108.81 260.69Z" fill="url(#paint5_linear_74_269)" stroke="black" stroke-width="0.1512"/>
<path d="M108.634 258.127C109.671 259.112 107.742 255.673 107.528 254.978C107.137 253.699 104.429 249.016 103.479 247.836C102.127 246.155 100.069 240.46 97.982 238.2C97.6648 237.856 92.2489 224.316 92.6773 226.421C93.3745 229.848 94.9947 233.959 96.2956 237.136C97.6177 240.366 94.3084 235.534 94.3084 235.592C94.3084 239.27 96.4396 240.282 99.2413 242.44C100.127 243.121 100.233 243.68 100.531 244.762C101.244 247.364 101.351 246.155 98.9657 244.576C97.8831 243.86 92.5996 239.93 92.5996 238.68C91.5244 238.901 93.8411 242.529 95.5336 243.334C96.591 243.837 103.055 249.612 103.279 250.432C103.428 250.972 105.655 254.479 103.257 251.632C102.912 251.223 98.1532 247.886 98.1532 248.029C98.1532 251.728 104.758 253.453 106.12 255.329C106.133 255.346 110.074 260.819 108.842 258.139L108.634 258.126V258.127Z" fill="url(#paint6_linear_74_269)"/>
<path d="M105.429 238.692C107.286 237.776 106.071 231.642 107.272 229.651C110.147 224.887 109.943 226.772 109.943 221.838C109.943 218.953 112.148 218.323 112.691 216.234C112.274 216.479 109.823 219.242 109.494 220.237C109.269 220.914 108.499 224.894 108.739 221.181C108.821 219.934 110.695 217.811 109.623 213.967C109.294 212.79 110.486 207.432 110.37 204.711C110.22 201.196 111.105 205.058 109.872 206.885C109.345 207.667 108.617 216.653 108.662 215.519C108.697 214.608 107.074 210.911 107.302 210.066C106.039 211.195 110.044 218.95 108.312 218.95C107.34 218.95 107.959 219.714 107.402 217.235C106.428 212.9 106.921 220.223 107.187 220.837C107.673 221.959 107.98 226.081 106.462 223.239C104.615 219.781 106.682 227.16 106.155 228.293C104.984 230.808 106.621 230.838 104.338 228.423C103.38 227.409 102.826 225.087 103.357 228.222C103.36 228.236 105.193 230.516 105.322 231.31C105.5 232.403 106.221 238.301 105.429 238.692Z" fill="url(#paint7_linear_74_269)"/>
<path d="M119.362 280.052C119.167 279.144 112.881 273.978 111.522 271.645C108.307 266.126 107.658 269.056 107.357 261.438C107.356 261.407 108.541 256.216 108.561 255.362C108.637 252.097 110.972 247.359 111.622 244.103C111.983 242.3 113.679 238.79 113.595 236.647C113.563 235.831 113.945 233.365 114.441 236.312C114.55 236.959 117.299 243.075 117.703 243.51C117.714 243.521 118.976 246.068 119.775 246.997C120.905 248.311 124.52 258.176 124.445 260.409C124.432 260.8 124.701 264.127 124.701 265.212C124.701 267.004 120.656 277.474 119.489 279.644C119.323 279.955 119.314 279.831 119.362 280.052Z" fill="url(#paint8_linear_74_269)" stroke="black" stroke-width="0.1512"/>
<path d="M134.518 302.913C133.841 302.124 131.241 298.692 130.564 297.903C126.344 294.859 127.166 295.153 122.942 294.069C122.45 293.943 121.933 293.953 121.428 293.896C116.2 292.532 115.623 292.925 111.512 289.297C108.28 286.443 106.577 284.527 103.247 279.779C102.287 278.142 101.327 276.506 100.368 274.87C97.9607 272.302 96.4579 271.092 93.6418 268.986C95.1365 269.153 96.6305 269.321 98.1258 269.488C101.144 270.477 104.016 271.215 107.094 272C113.072 273.338 115.245 276.451 120.966 279.462L124.539 282.188C125.73 283.672 126.921 285.155 128.112 286.638C130.091 290.215 130.423 290.484 131.055 294.53C131.568 296.445 134.005 300.999 134.518 302.913Z" fill="url(#paint9_linear_74_269)" stroke="black" stroke-width="0.1512"/>
<path d="M130.341 295.1L128.632 292.442L126.326 291.026L124.019 289.224H121.157L116.373 288.152L112.271 286.994L110.306 285.15L114.407 286.48L117.74 287.252L121.2 287.766L122.865 287.637L121.627 285.922L118.294 285.15L115.603 284.344H118.807L118.508 283.52L116.842 282.876L114.92 282.405L111.887 281.89H110.306L113.74 280.861L110.306 279.146L108.213 278.417L105.907 277.516L103.814 275.972L102.489 273.57L106.504 276.572L109.922 277.945L113.254 279.059L116.416 279.574L118.252 281.762L118.807 279.574L119.491 282.32L120.174 283.735L121.797 284.335L122.823 285.494L124.529 287.123L125.472 287.938L126.453 289.997L128.205 290.254L129.572 292.27L130.341 295.1Z" fill="url(#paint10_linear_74_269)"/>
<path d="M119.157 277.9C119.858 277.49 118.775 275.42 119.449 274.557C119.635 274.32 119.63 269.05 119.278 268.102C117.38 262.987 117.521 258.086 116.244 252.77C115.853 251.142 115.162 242.953 115.141 242.912C114.088 243.75 114.777 253.398 115.185 254.857C115.411 255.67 115.692 257.869 115.419 255C115.417 254.974 112.762 250.42 112.336 249.316C112.336 254.81 113.356 252.094 114.728 256.357C115.554 258.927 116.01 258.306 116.01 261.497C116.01 259.772 111.994 256.291 111.994 254.635C111.944 254.646 110.98 256.735 112.707 258.208C112.725 258.224 115.399 262.451 116.252 262.626C116.458 263.618 119.054 269.469 115.783 264.477C115.64 264.259 111.77 261.824 111.575 260.497C109.917 262.379 113.83 265.916 115.668 266.494C116.569 266.777 117.89 267.926 117.89 269.218C117.89 270.092 118.322 272.967 117.775 271.705C117.491 271.052 113.96 267.535 113.96 268.445C113.96 269.789 116.625 272.525 117.598 273.77C117.887 274.139 119.47 277.716 119.157 277.9Z" fill="url(#paint11_linear_74_269)"/>
<path d="M140.425 307.284C140.72 306.308 135.529 304.36 134.527 303.213C133.039 301.508 132.938 303.19 132.655 300.181C132.252 295.915 132.095 289.167 132.711 284.821C133.419 279.826 131.228 276.54 131.251 276.565C131.283 276.598 135.342 278.358 136.656 279.582C139.684 282.4 141.316 282.5 143.134 285.978C143.999 287.635 146.761 289.843 147.271 291.819C147.493 292.678 149.874 295.767 149.898 297.865C149.898 297.908 151.194 304.473 151.35 305.786C151.692 308.656 152.2 305.466 151.209 309.921C150.968 311.002 151.079 315.162 151.057 315.143C148.262 312.762 144.637 310.254 141.726 308.33C141.204 307.986 140.464 307.152 140.425 307.284Z" fill="url(#paint12_linear_74_269)" stroke="black" stroke-width="0.1512"/>
<path d="M149.314 309.897C147.73 308.237 147.424 306.26 144.708 303.494C143.965 302.736 143.693 296.24 144.459 295.7C144.704 295.528 144.281 294.421 144.928 293.663C145.585 292.895 145.161 291.683 143.946 295.208C142.86 298.359 142.703 294.793 141.696 292.635C141.556 292.333 140.445 289.16 140.258 288.618C140.079 288.581 138.952 286.396 138.762 286.086C138.462 285.596 133.724 278.168 134.441 280.368C134.728 281.246 139.573 288.631 137.617 287.346C136.058 286.32 135.482 285.591 136.656 287.752C137.436 289.189 139.582 289.569 140.273 291.783C141.072 294.347 139.475 292.546 137.736 291.542C135.451 290.22 138.569 294.349 140.258 295.5C143.678 297.828 138.264 295.303 137.212 294.465C136.473 295.875 139.972 297.28 140.949 297.446C142.28 297.67 144.807 301.482 139.411 298.261C133.958 295.007 137.363 298.789 137.625 298.874C140.02 299.65 141.032 300.532 142.643 302.286C143.638 303.369 144.333 305.422 146.317 306.818C146.989 307.29 147.086 308.253 148.567 309.332C148.844 309.533 149.022 309.592 149.314 309.897Z" fill="url(#paint13_linear_74_269)"/>
<path d="M172.873 326.943C171.383 326.896 169.894 326.848 168.404 326.8C163.977 325.793 160.32 326.007 155.793 325.939C152.467 325.344 149.14 324.75 145.813 324.155C139.758 323.072 138.29 321.081 134.342 316.881C133.309 315.083 132.273 313.284 131.241 311.486C129.788 308.96 128.276 307.27 126.433 305.027C125.591 303.92 124.75 302.813 123.908 301.706C126.611 302.226 128.512 302.69 131.271 302.69C132.276 302.546 133.28 302.403 134.284 302.259C138.829 301.628 139.544 301.892 144.053 302.72C146.247 303.349 148.439 303.979 150.632 304.607C153.845 306.136 155.333 307.298 158.176 309.436C159.593 311.352 161.03 313.171 162.519 315.032L165.181 319.625C166.943 322.511 167.317 322.432 170.086 324.36C171.015 325.222 171.944 326.082 172.873 326.943Z" fill="url(#paint14_linear_74_269)" stroke="black" stroke-width="0.1512"/>
<path d="M157.963 308.525H161.997C165.463 308.55 168.402 308.411 171.858 308.134C181.705 307.346 185.385 312.422 190.907 318.827C194.186 322.63 196.097 323.018 200.527 325.274C204.334 327.214 207.447 328.652 211.429 330.195C214.004 331.416 224.538 337.176 226.372 337.469L225.463 339.873C224.35 341.733 224.629 341.451 222.701 342.435C222.353 342.612 222.006 342.789 221.658 342.967C218.026 335.189 219.021 336.621 211.57 332.348C206.02 330.664 205.036 330.625 199.238 330.625C194.607 330.805 192.506 331.548 188.057 332.805C182.688 332.12 182.006 333.252 176.819 331.128C167.998 323.933 171.583 324.722 166.536 317.1C166.228 316.634 165.918 316.167 165.609 315.7C164.007 312.69 164.34 312.829 161.546 310.893C160.351 310.104 159.157 309.314 157.963 308.525Z" fill="url(#paint15_linear_74_269)" stroke="black" stroke-width="0.1512"/>
<path d="M226.562 337.514C225.934 337.846 225.048 337.251 223.732 338.224C222.037 339.477 221.65 340.633 221.65 342.864C224.773 342.864 226.34 337.629 226.562 337.514Z" fill="url(#paint16_linear_74_269)" stroke="black" stroke-width="0.1512"/>
<path d="M204.455 328.898C203.772 328.59 202.591 328.864 201.639 328.24C200.931 327.776 195.859 327.268 194.715 327.268C190.816 327.268 191.72 327.182 188.222 328.523C187.824 328.675 184.041 329.993 184.932 329.62C185.106 329.548 188.409 327.52 188.489 327.401C189.117 326.46 188.657 327.031 187.418 327.093C186.342 327.147 185.677 327.225 184.477 327.225C183.324 327.225 182.641 327.235 181.547 326.936C180.616 326.681 178.162 325.696 177.418 325.152C176.926 324.792 178.688 325.483 179.162 325.513C179.858 325.557 183.125 325.905 183.584 326.098C183.88 326.224 185.067 326.16 183.826 325.67C183.82 325.618 183.301 325.209 183.202 325.124C183.204 325.109 185.972 325.596 186.396 325.596C186.621 325.596 188.862 325.708 187.88 325.424C187.47 325.305 186.911 324.251 184.921 324.227C184.093 324.216 176.098 320.584 176.037 320.581C175.339 320.545 172.163 320.12 171.694 319.906C170.124 319.192 169.606 319.437 171.601 319.377C171.773 319.371 173.146 319.505 173.683 319.505C174.987 319.505 177.368 319.348 178.354 320.105C178.699 320.37 177.593 319.157 177.116 318.99C176.346 318.721 175.678 317.992 174.274 317.735C173.53 317.599 169.755 315.911 169.483 315.488C167.713 312.74 168.163 314.548 166.764 313.747C166.154 313.397 169.224 313.355 169.523 313.758C169.89 314.254 171.283 315.611 171.858 315.731C172.636 315.894 172.974 316.303 174.421 316.55C176.009 316.82 175.088 316.091 174.267 315.259C173.901 314.888 169.988 313.089 169.377 312.919C168.836 312.768 166.739 310.843 165.966 311.002C165.344 311.13 163.005 309.896 163.062 309.898C163.77 309.926 165.756 310.24 166.347 310.444C167.166 310.729 167.525 310.618 168.561 311.239C170.124 312.176 173.368 312.982 174.777 314.09C174.93 314.21 176.864 315.343 175.977 313.969C174.258 311.306 177.05 313.406 177.597 315.305C177.881 316.293 178.957 318.778 179.667 319.352C180.265 319.836 179.132 317.728 179.081 317.418C178.888 316.286 178.023 313.564 178.813 312.46C179.614 311.342 178.77 309.545 179.582 311.653C179.688 311.927 179.631 315.445 180.021 316.803C180.333 317.897 180.521 319.257 181.473 319.923C181.804 320.155 181.654 320.939 183.819 321.533C184.676 321.768 184.61 322.364 184.381 320.874C184.199 319.688 183.521 317.744 184.221 316.682C184.33 316.517 184.251 316.141 184.537 317.157C184.881 318.374 184.991 319.624 185.1 320.878C185.157 321.537 186.016 322.085 186.37 323.183C186.595 323.878 188.678 324.428 188.927 324.698C189.164 324.957 190.633 325.546 190.967 325.307C191.045 325.25 194.669 325.627 195.441 325.596C195.752 325.583 196.549 326.133 197.531 325.892C197.54 325.89 199.236 326.97 199.663 326.972C200.203 326.974 202.881 327.942 203.321 328.223C203.461 328.312 204.428 328.885 204.455 328.898Z" fill="url(#paint17_linear_74_269)"/>
<path d="M167.975 324.957C167.886 325.612 167.695 325.199 167.05 324.91C165.025 323.998 165.559 323.223 162.048 322.933C161.881 322.919 161.154 322.683 161.14 322.687C160.023 321.842 154.432 321.993 152.682 321.993C152.415 321.993 153.542 321.92 153.946 321.807C154.755 321.579 160.14 321.051 159.559 320.867C156.747 319.971 157.807 319.72 154.152 319.72C152.214 319.72 151.613 319.598 149.595 319.881C147.073 320.234 143.679 321.169 148.784 319.105C149.224 318.926 154.09 318.032 154.732 318.319C154.753 318.327 156.994 318.581 155.911 318.293C153.748 317.718 155.487 317.146 150.919 317.146C149.228 317.146 148.861 317.123 147.193 317.436C146.271 317.609 141.751 318.344 142.344 318.122C144.574 317.286 145.92 316.694 148.395 316.457C148.734 316.424 151.811 316.18 151.881 316.078C152.022 315.873 147.191 315.345 146.585 315.345C145.228 315.345 139.593 315.588 140.041 315.377C141.926 314.488 145.066 315.295 145.794 314.519C145.341 314.064 138.382 311.712 138.585 311.606C139.547 311.107 142.892 312.142 143.932 312.614C144.537 312.89 147.632 313.485 148.367 313.544C148.454 313.333 145.04 310.967 144.266 310.888C143.514 310.811 138.412 306.109 137.25 306.042C137.23 306.04 135.331 304.812 134.239 304.798C133.726 304.792 129.535 303.594 130.939 303.594C131.741 303.594 137.932 305.234 138.425 305.68C138.599 305.837 141.066 306.694 141.757 307.625C141.784 307.661 143.085 308.283 143.409 308.564C145.731 310.583 142.806 307.57 142.43 305.824C142.282 305.138 141.309 303.964 142.604 304.862C143.345 305.375 145.56 309.866 146.83 310.252C147.414 310.43 151.506 314.083 151.489 313.89C151.372 312.534 149.447 310.205 151.7 312.357C152.236 312.87 152.725 314.317 153.92 314.941C154.395 315.188 154.476 316.594 154.476 314.476C154.476 312.846 154.95 314.319 155.612 315.081C156.451 316.047 158.655 318.94 159.901 319.377C159.98 319.405 160.768 320.319 160.193 319.033C158.766 315.845 160.063 315.883 159.727 314.634C160.096 314.965 159.943 316.926 160.317 317.833C160.564 318.431 160.911 318.646 161.14 319.502C161.235 319.859 162.171 320.568 162.216 320.785C163.191 320.99 163.024 322.312 163.896 322.333C165.114 322.362 166.502 323.729 167.434 324.466C168.102 324.993 167.825 326.062 167.975 324.957Z" fill="url(#paint18_linear_74_269)"/>
<path d="M325.365 194.058C324.298 193.171 325.21 181.42 324.097 178.705C324.047 178.584 323.882 173.053 323.442 171.276C322.246 166.44 323.715 169.525 320.902 165.368C319.533 163.345 320.533 164.021 318.46 161.836C318.295 161.662 314.898 156.66 314.714 157.545C313.403 158.227 309.194 152.38 307.83 151.704C305.066 150.335 304.676 145.397 304.98 152.327C305.062 154.168 305.929 156.228 305.929 159.425C305.929 163.193 306.348 168.364 307.358 171.941C308.386 175.576 311.548 182.307 314.558 184.695C315.65 185.563 320.001 189.558 321.029 190.005C321.854 190.365 324.851 193.631 325.365 194.058Z" fill="url(#paint19_linear_74_269)" stroke="black" stroke-width="0.1512"/>
<path d="M323.656 224.51C323.319 223.345 332.308 212.523 332.948 210.806C333.075 210.463 335.056 206.958 335.199 206.502C336.7 201.695 339.171 200.388 337.988 194.873C337.496 192.577 338.457 189.019 336.912 185.244C336.253 183.633 335.4 176.543 335.489 174.457C335.535 173.396 332.778 177.862 332.499 178.082C331.476 178.888 325.236 187.793 324.981 188.947C323.979 193.477 322.246 192.628 322.246 199.005C322.246 202.147 322.443 203.921 322.767 206.896C323.142 210.347 322.858 213.799 323.558 217.212C323.895 218.857 323.162 222.801 323.656 224.51Z" fill="url(#paint20_linear_74_269)" stroke="black" stroke-width="0.1512"/>
<path d="M323.364 191.559C323.262 190.24 321.357 186.513 320.323 185.783C319.278 185.045 316.081 183.396 316.345 181.988C316.847 181.987 319.1 183.514 319.22 183.539C319.384 184.325 321.261 184.849 319.257 181.701C318.069 179.836 317.571 178.504 315.561 177.326C313.615 176.186 313.472 172.424 312.336 170.557C312.086 170.146 310.308 166.768 310.256 166.461C310.05 165.236 307.579 158.005 307.039 156.418C306.893 155.988 306.235 152.37 306.326 152.994C306.341 153.089 308.406 156.435 308.64 157.533C308.885 158.679 310.435 162.99 310.435 162.858C310.435 162.07 310.456 156.275 310.683 157.503C311.025 159.345 311.887 158.862 311.887 162.594C311.887 163.129 312.714 168.415 312.734 168.427C313.34 168.771 313.07 169.79 313.518 166.868C313.83 164.829 314.45 164.743 314.45 162.508C314.371 163.354 315.296 167.298 314.558 169.105C313.34 172.087 316.471 177.017 316.415 175.711C316.383 174.953 317.526 169.84 317.526 167.826C317.526 170.015 318.644 172.622 317.96 175.983C317.564 177.931 320.431 180.723 320.431 181.636C320.431 179.001 319.662 176.72 319.662 173.152C319.662 167.275 320.42 170.964 320.679 173.995C320.868 176.19 321.565 178.476 321.456 181.036C321.454 181.083 322.72 186.039 322.652 187.899C322.638 188.284 323.48 191.263 322.545 189.464C322.646 189.299 321.655 189.358 321.626 189.357L323.364 191.559Z" fill="url(#paint21_linear_74_269)"/>
<path d="M323.364 218.438C324.767 217.661 323.939 215.321 324.424 213.889C324.716 213.03 324.649 209.78 325.672 208.279C326.253 207.427 327.884 202.919 327.329 201.451C327.011 200.608 325.05 189.236 326.682 194.64C327.101 196.027 328.276 200.058 328.284 199.993C328.617 197.445 330.598 196.508 330.598 191.653C330.598 187.221 331.499 187.845 332.634 183.601C332.636 183.594 333.118 182.973 333.076 182.065C333.026 180.988 333.993 182.389 332.705 185.732C332.603 185.996 330.844 192.709 332.106 191.3C332.438 190.93 334.528 190.952 334.528 189.442C334.528 191.636 332.542 191.014 331.345 194.797C330.36 197.91 328.82 199.056 328.975 202.995C328.991 203.416 328.631 203.048 329.851 202.01C332.668 199.614 330.801 201.203 333.254 199.851C334.649 199.082 333.741 199.402 332.649 201C332.639 201.014 329.869 203.373 329.38 203.895C328.844 204.467 325.207 211.219 327.195 209.451C327.829 208.887 329.488 207.527 329.488 207.556C329.488 211.16 326.054 210.277 325.736 214.147C325.705 214.514 324.148 217.987 323.9 218.13L323.364 218.438Z" fill="url(#paint22_linear_74_269)"/>
<path d="M322.076 240.938C321.668 238.614 326.002 235.545 326.805 231.986C327.404 229.327 327.706 228.758 327.366 225.697C326.904 221.529 327.291 219.703 327.21 215.538C327.166 213.312 326.316 211.322 325.111 209.605C322.936 206.508 320.685 204.264 318.517 200.642C318.076 199.905 316.694 197.244 316.694 196.503C315.551 196.634 311.932 218.804 312.315 221.307C312.839 224.738 315.305 231.659 317.749 233.701C318.884 234.651 322.101 241.08 322.076 240.938Z" fill="url(#paint23_linear_74_269)" stroke="black" stroke-width="0.1512"/>
<path d="M318.573 260.69C318.363 261.061 318.149 260.393 320.766 259.264C322.826 258.375 325.714 258.262 327.794 255.982C328.974 254.688 330.436 254.348 332.522 251.738C337.13 245.969 336.83 244.38 337.696 236.477C338.165 232.192 337.19 226.904 337.633 222.408C337.923 219.464 337.848 222.082 336.088 223.987C334.883 225.291 333.19 226.904 331.638 227.697C329.75 228.663 326.305 232.138 325.216 233.989C323.913 236.203 320.439 238.891 319.955 241.108C319.929 241.231 317.661 244.263 317.89 246.941C317.894 246.979 317.634 252.115 317.634 253.032C317.634 256.102 318.804 255.572 318.396 259.83C318.371 260.086 318.553 260.727 318.573 260.69Z" fill="url(#paint24_linear_74_269)" stroke="black" stroke-width="0.1512"/>
<path d="M318.75 258.127C317.713 259.112 319.642 255.673 319.855 254.978C320.247 253.699 322.955 249.016 323.904 247.836C325.256 246.155 327.315 240.46 329.401 238.2C329.719 237.856 335.134 224.316 334.706 226.421C334.009 229.848 332.389 233.959 331.088 237.136C329.766 240.366 333.076 235.534 333.076 235.592C333.076 239.27 330.944 240.282 328.142 242.44C327.257 243.121 327.151 243.68 326.853 244.762C326.14 247.364 326.033 246.155 328.418 244.576C329.501 243.86 334.784 239.93 334.784 238.68C335.86 238.901 333.542 242.529 331.85 243.334C330.792 243.837 324.329 249.612 324.104 250.432C323.956 250.972 321.729 254.479 324.127 251.632C324.471 251.223 329.231 247.886 329.231 248.029C329.231 251.728 322.625 253.453 321.264 255.329C321.251 255.346 317.309 260.819 318.541 258.139L318.75 258.126V258.127Z" fill="url(#paint25_linear_74_269)"/>
<path d="M321.956 238.692C320.098 237.776 321.313 231.642 320.112 229.651C317.236 224.887 317.441 226.772 317.441 221.838C317.441 218.953 315.237 218.323 314.693 216.234C315.111 216.479 317.56 219.242 317.891 220.237C318.115 220.914 318.886 224.894 318.645 221.181C318.564 219.934 316.689 217.811 317.761 213.967C318.09 212.79 316.898 207.432 317.014 204.711C317.164 201.196 316.279 205.058 317.512 206.885C318.04 207.667 318.767 216.653 318.723 215.519C318.687 214.608 320.31 210.911 320.082 210.066C321.345 211.195 317.341 218.95 319.071 218.95C320.044 218.95 319.425 219.714 319.982 217.235C320.956 212.9 320.463 220.223 320.197 220.837C319.711 221.959 319.404 226.081 320.922 223.239C322.769 219.781 320.702 227.16 321.23 228.293C322.4 230.808 320.764 230.838 323.046 228.423C324.004 227.409 324.557 225.087 324.027 228.222C324.025 228.236 322.191 230.516 322.062 231.31C321.883 232.403 321.162 238.301 321.956 238.692Z" fill="url(#paint26_linear_74_269)"/>
<path d="M308.021 280.052C308.216 279.144 314.502 273.978 315.861 271.645C319.077 266.126 319.725 269.056 320.025 261.438C320.027 261.407 318.842 256.216 318.822 255.362C318.746 252.097 316.411 247.359 315.761 244.103C315.401 242.3 313.704 238.79 313.788 236.647C313.82 235.831 313.438 233.365 312.942 236.312C312.833 236.959 310.085 243.075 309.68 243.51C309.669 243.521 308.407 246.068 307.608 246.997C306.478 248.311 302.862 258.176 302.938 260.409C302.951 260.8 302.682 264.127 302.682 265.212C302.682 267.004 306.727 277.474 307.894 279.644C308.06 279.955 308.069 279.831 308.021 280.052Z" fill="url(#paint27_linear_74_269)" stroke="black" stroke-width="0.1512"/>
<path d="M292.866 302.913C293.543 302.124 296.143 298.692 296.819 297.903C301.04 294.859 300.218 295.153 304.441 294.069C304.933 293.943 305.451 293.953 305.956 293.896C311.183 292.532 311.761 292.925 315.871 289.297C319.103 286.443 320.807 284.527 324.137 279.779C325.096 278.142 326.056 276.506 327.016 274.87C329.423 272.302 330.926 271.092 333.742 268.986C332.248 269.153 330.753 269.321 329.258 269.488C326.239 270.477 323.367 271.215 320.29 272C314.311 273.338 312.139 276.451 306.418 279.462L302.845 282.188C301.654 283.672 300.463 285.155 299.272 286.638C297.293 290.215 296.96 290.484 296.329 294.53C295.816 296.445 293.379 300.999 292.866 302.913Z" fill="url(#paint28_linear_74_269)" stroke="black" stroke-width="0.1512"/>
<path d="M297.044 295.1L298.752 292.442L301.059 291.026L303.366 289.224H306.228L311.013 288.152L315.113 286.994L317.079 285.15L312.978 286.48L309.645 287.252L306.185 287.766L304.52 287.637L305.758 285.922L309.09 285.15L311.781 284.344H308.578L308.877 283.52L310.543 282.876L312.465 282.405L315.497 281.89H317.079L313.644 280.861L317.079 279.146L319.171 278.417L321.478 277.516L323.571 275.972L324.896 273.57L320.88 276.572L317.463 277.945L314.131 279.059L310.97 279.574L309.133 281.762L308.578 279.574L307.894 282.32L307.211 283.735L305.587 284.335L304.562 285.494L302.855 287.123L301.914 287.938L300.931 289.997L299.179 290.254L297.812 292.27L297.044 295.1Z" fill="url(#paint29_linear_74_269)"/>
<path d="M308.227 277.9C307.526 277.49 308.609 275.42 307.935 274.557C307.75 274.32 307.755 269.05 308.106 268.102C310.005 262.987 309.863 258.086 311.14 252.77C311.531 251.142 312.222 242.953 312.243 242.912C313.296 243.75 312.607 253.398 312.2 254.857C311.973 255.67 311.693 257.869 311.965 255C311.967 254.974 314.622 250.42 315.048 249.316C315.048 254.81 314.027 252.094 312.656 256.357C311.83 258.927 311.374 258.306 311.374 261.497C311.374 259.772 315.39 256.291 315.39 254.635C315.44 254.646 316.404 256.735 314.678 258.208C314.659 258.224 311.986 262.451 311.133 262.626C310.926 263.618 308.33 269.469 311.602 264.477C311.744 264.259 315.614 261.824 315.81 260.497C317.467 262.379 313.555 265.916 311.716 266.494C310.816 266.777 309.495 267.926 309.495 269.218C309.495 270.092 309.062 272.967 309.61 271.705C309.893 271.052 313.425 267.535 313.425 268.445C313.425 269.789 310.76 272.525 309.786 273.77C309.498 274.139 307.914 277.716 308.227 277.9Z" fill="url(#paint30_linear_74_269)"/>
<path d="M286.96 307.284C286.665 306.308 291.856 304.36 292.858 303.213C294.345 301.508 294.447 303.19 294.73 300.181C295.133 295.915 295.289 289.167 294.674 284.822C293.966 279.826 296.157 276.541 296.134 276.565C296.102 276.599 292.043 278.358 290.73 279.582C287.701 282.4 286.07 282.5 284.251 285.979C283.386 287.635 280.624 289.843 280.114 291.819C279.892 292.678 277.511 295.768 277.488 297.865C277.487 297.909 276.191 304.473 276.035 305.786C275.693 308.656 275.185 305.467 276.176 309.921C276.417 311.002 276.306 315.162 276.328 315.143C279.124 312.763 282.748 310.254 285.66 308.33C286.181 307.986 286.921 307.153 286.96 307.284Z" fill="url(#paint31_linear_74_269)" stroke="black" stroke-width="0.1512"/>
<path d="M278.071 309.898C279.655 308.237 279.961 306.26 282.677 303.494C283.42 302.737 283.692 296.241 282.925 295.701C282.681 295.529 283.105 294.422 282.457 293.665C281.8 292.896 282.223 291.684 283.438 295.209C284.524 298.36 284.682 294.794 285.689 292.635C285.829 292.334 286.939 289.16 287.127 288.618C287.306 288.581 288.432 286.397 288.623 286.087C288.922 285.597 293.66 278.169 292.944 280.369C292.657 281.247 287.812 288.632 289.768 287.346C291.327 286.321 291.903 285.591 290.729 287.753C289.949 289.191 287.802 289.57 287.112 291.784C286.314 294.347 287.909 292.547 289.648 291.542C291.934 290.221 288.817 294.35 287.127 295.5C283.706 297.828 289.12 295.304 290.173 294.466C290.912 295.876 287.413 297.28 286.436 297.446C285.105 297.671 282.577 301.483 287.974 298.263C293.427 295.008 290.021 298.79 289.76 298.875C287.366 299.652 286.352 300.532 284.742 302.287C283.747 303.37 283.051 305.423 281.068 306.818C280.396 307.291 280.299 308.254 278.818 309.333C278.541 309.534 278.363 309.593 278.071 309.898Z" fill="url(#paint32_linear_74_269)"/>
<path d="M254.513 326.943C256.002 326.896 257.492 326.848 258.981 326.8C263.408 325.793 267.065 326.007 271.592 325.939C274.919 325.344 278.246 324.75 281.573 324.155C287.628 323.072 289.096 321.081 293.043 316.881C294.077 315.083 295.112 313.284 296.145 311.486C297.598 308.96 299.109 307.27 300.953 305.027C301.795 303.92 302.636 302.813 303.477 301.706C300.775 302.226 298.873 302.69 296.114 302.69C295.11 302.546 294.105 302.403 293.101 302.259C288.557 301.628 287.841 301.892 283.332 302.72C281.139 303.349 278.946 303.979 276.754 304.607C273.541 306.136 272.052 307.298 269.21 309.436C267.793 311.352 266.355 313.171 264.866 315.032L262.204 319.625C260.442 322.511 260.068 322.432 257.3 324.36C256.371 325.222 255.442 326.082 254.513 326.943Z" fill="url(#paint33_linear_74_269)" stroke="black" stroke-width="0.1512"/>
<path d="M269.422 308.526H265.388C261.922 308.551 258.983 308.411 255.528 308.135C245.68 307.347 242 312.423 236.478 318.828C233.199 322.631 231.288 323.019 226.857 325.275C223.051 327.215 219.938 328.652 215.956 330.195C213.381 331.417 202.847 337.178 201.014 337.469L201.922 339.874C203.034 341.733 202.756 341.452 204.684 342.436C205.032 342.613 205.379 342.791 205.727 342.968C209.359 335.189 208.364 336.622 215.816 332.348C221.365 330.665 222.349 330.626 228.147 330.626C232.778 330.805 234.879 331.548 239.328 332.805C244.697 332.12 245.379 333.253 250.566 331.129C259.387 323.933 255.803 324.722 260.849 317.101C261.158 316.634 261.467 316.168 261.776 315.701C263.378 312.691 263.045 312.829 265.839 310.893C267.034 310.104 268.228 309.315 269.422 308.526Z" fill="url(#paint34_linear_74_269)" stroke="black" stroke-width="0.1512"/>
<path d="M200.822 337.514C201.449 337.846 202.336 337.252 203.651 338.224C205.346 339.477 205.734 340.633 205.734 342.865C202.61 342.865 201.044 337.629 200.822 337.514Z" fill="url(#paint35_linear_74_269)" stroke="black" stroke-width="0.1512"/>
<path d="M222.929 328.898C223.612 328.591 224.792 328.864 225.745 328.24C226.453 327.776 231.525 327.268 232.669 327.268C236.568 327.268 235.663 327.182 239.161 328.523C239.56 328.676 243.343 329.993 242.451 329.62C242.278 329.548 238.974 327.521 238.895 327.401C238.267 326.461 238.727 327.031 239.966 327.094C241.042 327.147 241.706 327.226 242.906 327.226C244.06 327.226 244.743 327.236 245.837 326.937C246.768 326.681 249.221 325.697 249.966 325.153C250.458 324.792 248.695 325.483 248.221 325.514C247.526 325.557 244.258 325.905 243.799 326.099C243.503 326.224 242.317 326.16 243.558 325.67C243.564 325.618 244.083 325.21 244.181 325.124C244.18 325.11 241.412 325.596 240.987 325.596C240.763 325.596 238.521 325.708 239.504 325.424C239.914 325.305 240.473 324.252 242.462 324.227C243.291 324.217 251.286 320.585 251.347 320.581C252.044 320.546 255.221 320.12 255.69 319.906C257.259 319.192 257.777 319.437 255.783 319.377C255.611 319.372 254.237 319.505 253.7 319.505C252.397 319.505 250.015 319.348 249.03 320.106C248.685 320.37 249.79 319.158 250.268 318.991C251.037 318.722 251.706 317.993 253.11 317.735C253.853 317.6 257.629 315.911 257.901 315.488C259.67 312.741 259.221 314.548 260.619 313.747C261.23 313.398 258.159 313.355 257.861 313.759C257.494 314.255 256.101 315.611 255.526 315.731C254.748 315.894 254.41 316.304 252.963 316.55C251.375 316.82 252.295 316.091 253.117 315.259C253.483 314.889 257.395 313.09 258.007 312.919C258.548 312.768 260.645 310.844 261.417 311.003C262.04 311.131 264.378 309.896 264.322 309.898C263.613 309.927 261.628 310.24 261.037 310.445C260.218 310.729 259.859 310.618 258.823 311.239C257.26 312.176 254.015 312.983 252.606 314.09C252.454 314.21 250.52 315.343 251.407 313.97C253.126 311.306 250.333 313.406 249.787 315.306C249.503 316.294 248.426 318.778 247.717 319.353C247.119 319.837 248.251 317.729 248.303 317.419C248.495 316.286 249.361 313.564 248.571 312.461C247.77 311.342 248.614 309.545 247.801 311.653C247.696 311.927 247.753 315.445 247.363 316.804C247.051 317.897 246.862 319.257 245.911 319.923C245.58 320.155 245.73 320.94 243.565 321.533C242.708 321.768 242.774 322.364 243.003 320.874C243.185 319.689 243.863 317.745 243.163 316.682C243.054 316.518 243.133 316.142 242.846 317.157C242.503 318.375 242.393 319.624 242.284 320.878C242.226 321.537 241.368 322.085 241.013 323.183C240.789 323.879 238.706 324.428 238.457 324.699C238.22 324.958 236.751 325.546 236.417 325.307C236.338 325.25 232.715 325.627 231.942 325.596C231.631 325.583 230.835 326.134 229.853 325.893C229.843 325.89 228.148 326.97 227.721 326.972C227.181 326.975 224.503 327.943 224.063 328.223C223.923 328.312 222.955 328.886 222.929 328.898V328.898Z" fill="url(#paint36_linear_74_269)"/>
<path d="M259.411 324.958C259.5 325.612 259.691 325.2 260.335 324.91C262.361 323.999 261.826 323.223 265.337 322.933C265.503 322.92 266.231 322.683 266.245 322.688C267.362 321.843 272.953 321.993 274.703 321.993C274.97 321.993 273.844 321.92 273.439 321.807C272.63 321.58 267.246 321.052 267.826 320.867C270.638 319.972 269.578 319.72 273.233 319.72C275.171 319.72 275.772 319.598 277.79 319.881C280.312 320.235 283.706 321.169 278.602 319.105C278.161 318.927 273.296 318.033 272.653 318.319C272.632 318.328 270.391 318.581 271.474 318.294C273.638 317.718 271.898 317.146 276.465 317.146C278.157 317.146 278.524 317.123 280.192 317.436C281.115 317.609 285.634 318.344 285.041 318.123C282.812 317.287 281.465 316.694 278.99 316.457C278.652 316.425 275.575 316.181 275.504 316.078C275.364 315.873 280.194 315.346 280.801 315.346C282.158 315.346 287.793 315.589 287.344 315.377C285.459 314.488 282.319 315.296 281.592 314.519C282.045 314.064 289.003 311.712 288.8 311.607C287.839 311.107 284.493 312.142 283.454 312.615C282.849 312.89 279.754 313.486 279.018 313.544C278.931 313.333 282.346 310.968 283.119 310.888C283.871 310.812 288.973 306.11 290.136 306.042C290.156 306.04 292.055 304.812 293.146 304.799C293.66 304.792 297.85 303.594 296.447 303.594C295.645 303.594 289.453 305.235 288.96 305.681C288.786 305.838 286.319 306.694 285.628 307.625C285.601 307.662 284.3 308.284 283.977 308.565C281.654 310.583 284.58 307.571 284.955 305.825C285.103 305.139 286.077 303.964 284.781 304.862C284.041 305.375 281.825 309.866 280.556 310.253C279.971 310.431 275.879 314.084 275.896 313.891C276.013 312.535 277.938 310.205 275.686 312.357C275.149 312.871 274.661 314.318 273.465 314.941C272.99 315.188 272.909 316.594 272.909 314.477C272.909 312.846 272.436 314.32 271.773 315.082C270.934 316.047 268.73 318.94 267.485 319.377C267.405 319.405 266.617 320.32 267.193 319.033C268.619 315.846 267.323 315.884 267.658 314.635C267.289 314.966 267.442 316.926 267.068 317.833C266.821 318.431 266.474 318.646 266.245 319.502C266.149 319.86 265.214 320.568 265.17 320.785C264.195 320.99 264.361 322.312 263.49 322.333C262.272 322.362 260.883 323.73 259.951 324.466C259.284 324.993 259.56 326.063 259.411 324.958Z" fill="url(#paint37_linear_74_269)"/>
<path d="M131.799 498.46L131.732 470.099L117.844 493.451H112.989L99.1016 470.64V498.46H88.8545V451.079H97.8886L115.552 480.523L132.945 451.079H141.979L142.046 498.46H131.799Z" fill="#372579"/>
<path d="M189.837 460.014H174.735V498.46H163.949V460.014H148.915V451.079H189.837V460.014Z" fill="#372579"/>
<path d="M242.673 451.079L222.582 488.578C220.651 492.188 218.313 494.918 215.572 496.768C212.875 498.618 209.931 499.543 206.74 499.543C204.268 499.543 201.706 499.002 199.055 497.919L201.684 489.593C203.571 490.18 205.144 490.473 206.403 490.473C207.751 490.473 208.965 490.157 210.043 489.525C211.122 488.848 212.111 487.811 213.009 486.412L213.414 485.87L194.807 451.079H206.47L219.01 476.529L231.954 451.079H242.673Z" fill="#372579"/>
<path d="M269.585 499.273C264.776 499.273 260.416 498.235 256.506 496.159C252.641 494.039 249.585 491.128 247.337 487.428C245.135 483.682 244.034 479.463 244.034 474.77C244.034 470.077 245.135 465.88 247.337 462.18C249.585 458.434 252.641 455.524 256.506 453.448C260.416 451.327 264.798 450.267 269.652 450.267C273.742 450.267 277.427 450.989 280.709 452.433C284.034 453.877 286.821 455.952 289.068 458.66L282.057 465.158C278.866 461.458 274.911 459.608 270.192 459.608C267.27 459.608 264.663 460.262 262.371 461.571C260.079 462.834 258.281 464.617 256.978 466.918C255.72 469.219 255.09 471.836 255.09 474.77C255.09 477.703 255.72 480.32 256.978 482.621C258.281 484.923 260.079 486.728 262.371 488.036C264.663 489.3 267.27 489.932 270.192 489.932C274.911 489.932 278.866 488.059 282.057 484.314L289.068 490.812C286.821 493.565 284.034 495.663 280.709 497.107C277.382 498.551 273.675 499.273 269.585 499.273Z" fill="#372579"/>
<path d="M296.186 451.079H307.04V481.944L329.558 451.079H339.805V498.46H329.018V467.662L306.502 498.46H296.186V451.079Z" fill="#372579"/>
<path d="M210.896 143.738C179.292 143.738 153.517 169.617 153.517 201.347C153.517 233.078 179.292 258.958 210.896 258.958C242.498 258.958 268.274 233.078 268.274 201.347C268.274 169.617 242.498 143.738 210.896 143.738Z" stroke="#372579" stroke-width="0.7"/>
<path d="M213.39 182.17C224.093 182.45 232.535 198.215 232.183 217.264C231.83 236.313 222.813 251.62 212.111 251.34C201.409 251.06 192.967 235.296 193.319 216.247C193.671 197.198 202.688 181.89 213.39 182.17Z" stroke="#372579" stroke-width="1.41372"/>
<path d="M213.392 182.178C232.363 182.673 247.548 198.61 247.195 217.654C246.841 236.699 231.08 251.828 212.109 251.333C193.138 250.838 177.953 234.901 178.306 215.857C178.66 196.812 194.421 181.683 213.392 182.178Z" stroke="#372579" stroke-width="1.41624"/>
<path d="M178.301 216.413L247.201 217.098" stroke="#372579" stroke-width="1.41372"/>
<path d="M212.41 182.167V251.345" stroke="#372579" stroke-width="1.41372"/>
<path d="M192.626 188.871L193.991 190.65L195.586 192.348L196.887 193.472L198.114 194.549L199.606 195.634L201.323 196.855L203.304 198.04L205.294 198.788L207.401 199.366L210.002 199.78L212.494 199.975L214.689 199.943L216.999 199.74L219.052 199.181L220.765 198.571L222.485 197.611L223.979 196.602L225.55 195.551L227.315 194.201L228.818 192.712L229.865 191.386L230.723 190.012L231.511 188.331" stroke="#372579" stroke-width="1.41372"/>
<path d="M192.626 244.753L194.112 242.741L195.831 240.838L197.225 239.593L198.539 238.398L200.128 237.209L201.954 235.873L204.053 234.596L206.142 233.831L208.346 233.274L211.055 232.936L213.642 232.851L215.911 233.014L218.293 233.386L220.394 234.16L222.29 235.162L223.882 236.201L225.387 237.472L226.969 238.796L228.74 240.483L230.234 242.318L231.262 243.936L232.094 245.599L232.193 245.865" stroke="#372579" stroke-width="1.41372"/>
<path d="M210.872 143.198C179.268 143.198 153.493 169.077 153.493 200.808C153.493 232.538 179.268 258.418 210.872 258.418C242.475 258.418 268.25 232.538 268.25 200.808C268.25 169.077 242.475 143.198 210.872 143.198Z" stroke="white" stroke-width="0.54418"/>
<path fill-rule="evenodd" clip-rule="evenodd" d="M213.287 110.35L212.886 110.274L212.084 121.226L208.186 125.281L207.494 126.494L206.619 126.531L206.583 128.919L207.129 129.223L207.02 131.458L204.433 131.572L198.968 127.062L191.316 131.42L191.426 140.137L193.648 140.251L196.345 137.901L198.166 137.787L204.287 141.463L204.251 147.034L206.801 149.535L206.728 150.483L211.429 150.634L211.684 155.788L213.505 155.94L213.287 110.35Z" fill="white"/>
<path fill-rule="evenodd" clip-rule="evenodd" d="M212.272 110.35L212.687 110.274L213.518 121.226L217.557 125.281L218.274 126.494L219.179 126.531L219.218 128.919L218.651 129.223L218.764 131.458L221.444 131.572L227.106 127.062L235.033 131.42L234.919 140.137L232.616 140.251L229.824 137.901L227.937 137.787L221.595 141.463L221.633 147.034L218.991 149.535L219.066 150.483L214.197 150.634L213.933 155.788L212.046 155.94L212.272 110.35Z" fill="white"/>
<path fill-rule="evenodd" clip-rule="evenodd" d="M213.55 126.881H213.965V146.959H213.55V126.881Z" fill="#102A83"/>
<path fill-rule="evenodd" clip-rule="evenodd" d="M214.143 126.881H214.421V147.005H214.143V126.881Z" fill="#102A83"/>
<path fill-rule="evenodd" clip-rule="evenodd" d="M214.508 127.229H214.786V146.914H214.508V127.229Z" fill="#102A83"/>
<path fill-rule="evenodd" clip-rule="evenodd" d="M214.873 128.191H215.15V146.868H214.873V128.191Z" fill="#102A83"/>
<path fill-rule="evenodd" clip-rule="evenodd" d="M215.238 129.107H215.515V147.051H215.238V129.107Z" fill="#102A83"/>
<path fill-rule="evenodd" clip-rule="evenodd" d="M215.649 129.61H215.926V147.051H215.649V129.61Z" fill="#102A83"/>
<path fill-rule="evenodd" clip-rule="evenodd" d="M218.247 131.945H218.524V149.614H218.247V131.945Z" fill="#102A83"/>
<path fill-rule="evenodd" clip-rule="evenodd" d="M218.748 135.971H219.025V148.56H218.748V135.971Z" fill="#102A83"/>
<path fill-rule="evenodd" clip-rule="evenodd" d="M219.251 139.998H219.528V147.508H219.251V139.998Z" fill="#102A83"/>
<path fill-rule="evenodd" clip-rule="evenodd" d="M221.759 132.033H222.037V140.551H221.759V132.033Z" fill="#102A83"/>
<path fill-rule="evenodd" clip-rule="evenodd" d="M191.916 131.813L192.194 131.851V139.921L191.916 139.883V131.813Z" fill="#102A83"/>
<path fill-rule="evenodd" clip-rule="evenodd" d="M222.351 131.304H222.628V140.094H222.351V131.304Z" fill="#102A83"/>
<path fill-rule="evenodd" clip-rule="evenodd" d="M192.509 131.17L192.787 131.21V140L192.509 139.96V131.17Z" fill="#102A83"/>
<path fill-rule="evenodd" clip-rule="evenodd" d="M222.945 130.731H223.222V139.637H222.945V130.731Z" fill="#102A83"/>
<path fill-rule="evenodd" clip-rule="evenodd" d="M193.102 130.683L193.38 130.725V139.884L193.102 139.843V130.683Z" fill="#102A83"/>
<path fill-rule="evenodd" clip-rule="evenodd" d="M223.537 130.314H223.814V139.18H223.537V130.314Z" fill="#102A83"/>
<path fill-rule="evenodd" clip-rule="evenodd" d="M193.696 130.351L193.973 130.392V139.481L193.696 139.44V130.351Z" fill="#102A83"/>
<path fill-rule="evenodd" clip-rule="evenodd" d="M224.129 130.053H224.406V138.949H224.129V130.053Z" fill="#102A83"/>
<path fill-rule="evenodd" clip-rule="evenodd" d="M194.289 129.995L194.566 130.036V139.112L194.289 139.071V129.995Z" fill="#102A83"/>
<path fill-rule="evenodd" clip-rule="evenodd" d="M224.722 129.701H224.999V138.627H224.722V129.701Z" fill="#102A83"/>
<path fill-rule="evenodd" clip-rule="evenodd" d="M194.881 129.774L195.158 129.814V138.601L194.881 138.562V129.774Z" fill="#102A83"/>
<path fill-rule="evenodd" clip-rule="evenodd" d="M225.316 129.336H225.594V138.08H225.316V129.336Z" fill="#102A83"/>
<path fill-rule="evenodd" clip-rule="evenodd" d="M195.474 129.371L195.751 129.411V138.088L195.474 138.049V129.371Z" fill="#102A83"/>
<path fill-rule="evenodd" clip-rule="evenodd" d="M226.045 128.604H226.322V137.53H226.045V128.604Z" fill="#102A83"/>
<path fill-rule="evenodd" clip-rule="evenodd" d="M196.204 128.932L196.481 128.97V137.613L196.204 137.574V128.932Z" fill="#102A83"/>
<path fill-rule="evenodd" clip-rule="evenodd" d="M226.776 127.87H227.053V137.071H226.776V127.87Z" fill="#102A83"/>
<path fill-rule="evenodd" clip-rule="evenodd" d="M196.933 128.639L197.21 128.678V137.616L196.933 137.577V128.639Z" fill="#102A83"/>
<path fill-rule="evenodd" clip-rule="evenodd" d="M197.589 128.302L197.866 128.342V137.544L197.589 137.503V128.302Z" fill="#102A83"/>
<path fill-rule="evenodd" clip-rule="evenodd" d="M198.248 127.833L198.525 127.875V137.47L198.248 137.428V127.833Z" fill="#102A83"/>
<path fill-rule="evenodd" clip-rule="evenodd" d="M219.752 144.024H220.029V146.455H219.752V144.024Z" fill="#102A83"/>
<path fill-rule="evenodd" clip-rule="evenodd" d="M207.263 149.202H218.706V149.569H207.263V149.202Z" fill="#102A83"/>
<path fill-rule="evenodd" clip-rule="evenodd" d="M205.621 147.462H220.347V147.829H205.621V147.462Z" fill="#102A83"/>
<path fill-rule="evenodd" clip-rule="evenodd" d="M204.846 146.776H221.031V147.143H204.846V146.776Z" fill="#102A83"/>
<path fill-rule="evenodd" clip-rule="evenodd" d="M316.91 134.515H323.293V134.881H316.91V134.515Z" fill="#102A83"/>
<path fill-rule="evenodd" clip-rule="evenodd" d="M325.31 134.561H329.869V134.927H325.31V134.561Z" fill="#102A83"/>
<path fill-rule="evenodd" clip-rule="evenodd" d="M316.91 135.11H323.293V135.476H316.91V135.11Z" fill="#102A83"/>
<path fill-rule="evenodd" clip-rule="evenodd" d="M325.628 135.521H329.822V135.888H325.628V135.521Z" fill="#102A83"/>
<path fill-rule="evenodd" clip-rule="evenodd" d="M316.91 135.705H323.293V136.071H316.91V135.705Z" fill="#102A83"/>
<path fill-rule="evenodd" clip-rule="evenodd" d="M316.91 136.3H323.293V136.666H316.91V136.3Z" fill="#102A83"/>
<path fill-rule="evenodd" clip-rule="evenodd" d="M199.729 142.379H204.253V144.87H199.729V142.379Z" fill="#102A83"/>
<path fill-rule="evenodd" clip-rule="evenodd" d="M221.612 142.273H226.137V144.764H221.612V142.273Z" fill="#102A83"/>
<defs>
<linearGradient id="paint0_linear_74_269" x1="-450.185" y1="588.23" x2="-490.128" y2="609.383" gradientUnits="userSpaceOnUse">
<stop stop-color="#D6D6D6"/>
<stop offset="0.12" stop-color="white"/>
<stop offset="1" stop-color="white"/>
</linearGradient>
<linearGradient id="paint1_linear_74_269" x1="-1174.54" y1="152.528" x2="-1209.43" y2="116.546" gradientUnits="userSpaceOnUse">
<stop stop-color="#D6D6D6"/>
<stop offset="0.12" stop-color="white"/>
<stop offset="1" stop-color="white"/>
</linearGradient>
<linearGradient id="paint2_linear_74_269" x1="104.021" y1="152.922" x2="121.067" y2="152.922" gradientUnits="userSpaceOnUse">
<stop/>
<stop offset="0.05" stop-color="white"/>
<stop offset="0.12" stop-color="white"/>
<stop offset="1" stop-color="white"/>
</linearGradient>
<linearGradient id="paint3_linear_74_269" x1="92.8557" y1="181.708" x2="104.02" y2="181.708" gradientUnits="userSpaceOnUse">
<stop/>
<stop offset="0.05" stop-color="white"/>
<stop offset="0.12" stop-color="white"/>
<stop offset="1" stop-color="white"/>
</linearGradient>
<linearGradient id="paint4_linear_74_269" x1="-1000.58" y1="435.302" x2="-1042.94" y2="422.405" gradientUnits="userSpaceOnUse">
<stop stop-color="#D6D6D6"/>
<stop offset="0.12" stop-color="white"/>
<stop offset="1" stop-color="white"/>
</linearGradient>
<linearGradient id="paint5_linear_74_269" x1="-1207.26" y1="119.201" x2="-1234.84" y2="90.748" gradientUnits="userSpaceOnUse">
<stop stop-color="#D6D6D6"/>
<stop offset="0.12" stop-color="white"/>
<stop offset="1" stop-color="white"/>
</linearGradient>
<linearGradient id="paint6_linear_74_269" x1="92.3253" y1="226.199" x2="109.081" y2="226.199" gradientUnits="userSpaceOnUse">
<stop/>
<stop offset="0.05" stop-color="white"/>
<stop offset="0.12" stop-color="white"/>
<stop offset="1" stop-color="white"/>
</linearGradient>
<linearGradient id="paint7_linear_74_269" x1="103.151" y1="203.284" x2="112.691" y2="203.284" gradientUnits="userSpaceOnUse">
<stop/>
<stop offset="0.05" stop-color="white"/>
<stop offset="0.12" stop-color="white"/>
<stop offset="1" stop-color="white"/>
</linearGradient>
<linearGradient id="paint8_linear_74_269" x1="-1048.38" y1="422.4" x2="-1091.18" y2="408.55" gradientUnits="userSpaceOnUse">
<stop stop-color="#D6D6D6"/>
<stop offset="0.12" stop-color="white"/>
<stop offset="1" stop-color="white"/>
</linearGradient>
<linearGradient id="paint9_linear_74_269" x1="-1243.33" y1="87.5925" x2="-1266.9" y2="63.2822" gradientUnits="userSpaceOnUse">
<stop stop-color="#D6D6D6"/>
<stop offset="0.12" stop-color="white"/>
<stop offset="1" stop-color="white"/>
</linearGradient>
<linearGradient id="paint10_linear_74_269" x1="102.489" y1="273.57" x2="130.341" y2="273.57" gradientUnits="userSpaceOnUse">
<stop/>
<stop offset="0.05" stop-color="white"/>
<stop offset="0.12" stop-color="white"/>
<stop offset="1" stop-color="white"/>
</linearGradient>
<linearGradient id="paint11_linear_74_269" x1="111.175" y1="242.912" x2="119.57" y2="242.912" gradientUnits="userSpaceOnUse">
<stop/>
<stop offset="0.05" stop-color="white"/>
<stop offset="0.12" stop-color="white"/>
<stop offset="1" stop-color="white"/>
</linearGradient>
<linearGradient id="paint12_linear_74_269" x1="-1275.63" y1="108.371" x2="-1302.43" y2="80.7277" gradientUnits="userSpaceOnUse">
<stop stop-color="#D6D6D6"/>
<stop offset="0.12" stop-color="white"/>
<stop offset="1" stop-color="white"/>
</linearGradient>
<linearGradient id="paint13_linear_74_269" x1="134.368" y1="279.962" x2="149.314" y2="279.962" gradientUnits="userSpaceOnUse">
<stop/>
<stop offset="0.05" stop-color="white"/>
<stop offset="0.12" stop-color="white"/>
<stop offset="1" stop-color="white"/>
</linearGradient>
<linearGradient id="paint14_linear_74_269" x1="-1263.43" y1="-353.355" x2="-1268.26" y2="-378.121" gradientUnits="userSpaceOnUse">
<stop stop-color="#D6D6D6"/>
<stop offset="0.12" stop-color="white"/>
<stop offset="1" stop-color="white"/>
</linearGradient>
<linearGradient id="paint15_linear_74_269" x1="-9.98286" y1="513.82" x2="-21.3857" y2="546.804" gradientUnits="userSpaceOnUse">
<stop stop-color="#D6D6D6"/>
<stop offset="0.12" stop-color="white"/>
<stop offset="1" stop-color="white"/>
</linearGradient>
<linearGradient id="paint16_linear_74_269" x1="-859.206" y1="-907.576" x2="-855.834" y2="-911.721" gradientUnits="userSpaceOnUse">
<stop stop-color="white"/>
<stop offset="0.12" stop-color="white"/>
<stop offset="1" stop-color="white"/>
</linearGradient>
<linearGradient id="paint17_linear_74_269" x1="163.06" y1="309.898" x2="204.455" y2="309.898" gradientUnits="userSpaceOnUse">
<stop/>
<stop offset="0.05" stop-color="white"/>
<stop offset="0.12" stop-color="white"/>
<stop offset="1" stop-color="white"/>
</linearGradient>
<linearGradient id="paint18_linear_74_269" x1="130.653" y1="303.594" x2="167.975" y2="303.594" gradientUnits="userSpaceOnUse">
<stop/>
<stop offset="0.05" stop-color="white"/>
<stop offset="0.12" stop-color="white"/>
<stop offset="1" stop-color="white"/>
</linearGradient>
<linearGradient id="paint19_linear_74_269" x1="-354.941" y1="768.082" x2="-394.883" y2="789.23" gradientUnits="userSpaceOnUse">
<stop stop-color="#D6D6D6"/>
<stop offset="0.12" stop-color="white"/>
<stop offset="1" stop-color="white"/>
</linearGradient>
<linearGradient id="paint20_linear_74_269" x1="-1342.26" y1="315.149" x2="-1377.15" y2="279.168" gradientUnits="userSpaceOnUse">
<stop stop-color="#D6D6D6"/>
<stop offset="0.12" stop-color="white"/>
<stop offset="1" stop-color="white"/>
</linearGradient>
<linearGradient id="paint21_linear_74_269" x1="306.317" y1="152.922" x2="323.364" y2="152.922" gradientUnits="userSpaceOnUse">
<stop/>
<stop offset="0.05" stop-color="white"/>
<stop offset="0.12" stop-color="white"/>
<stop offset="1" stop-color="white"/>
</linearGradient>
<linearGradient id="paint22_linear_74_269" x1="323.364" y1="181.708" x2="334.528" y2="181.708" gradientUnits="userSpaceOnUse">
<stop/>
<stop offset="0.05" stop-color="white"/>
<stop offset="0.12" stop-color="white"/>
<stop offset="1" stop-color="white"/>
</linearGradient>
<linearGradient id="paint23_linear_74_269" x1="-1062.69" y1="639.249" x2="-1105.04" y2="626.352" gradientUnits="userSpaceOnUse">
<stop stop-color="#D6D6D6"/>
<stop offset="0.12" stop-color="white"/>
<stop offset="1" stop-color="white"/>
</linearGradient>
<linearGradient id="paint24_linear_74_269" x1="-1371.32" y1="278.274" x2="-1398.91" y2="249.821" gradientUnits="userSpaceOnUse">
<stop stop-color="#D6D6D6"/>
<stop offset="0.12" stop-color="white"/>
<stop offset="1" stop-color="white"/>
</linearGradient>
<linearGradient id="paint25_linear_74_269" x1="318.303" y1="226.199" x2="335.059" y2="226.199" gradientUnits="userSpaceOnUse">
<stop/>
<stop offset="0.05" stop-color="white"/>
<stop offset="0.12" stop-color="white"/>
<stop offset="1" stop-color="white"/>
</linearGradient>
<linearGradient id="paint26_linear_74_269" x1="314.693" y1="203.284" x2="324.233" y2="203.284" gradientUnits="userSpaceOnUse">
<stop/>
<stop offset="0.05" stop-color="white"/>
<stop offset="0.12" stop-color="white"/>
<stop offset="1" stop-color="white"/>
</linearGradient>
<linearGradient id="paint27_linear_74_269" x1="-1108.74" y1="608.913" x2="-1151.54" y2="595.063" gradientUnits="userSpaceOnUse">
<stop stop-color="#D6D6D6"/>
<stop offset="0.12" stop-color="white"/>
<stop offset="1" stop-color="white"/>
</linearGradient>
<linearGradient id="paint28_linear_74_269" x1="-1386.64" y1="226.543" x2="-1410.22" y2="202.232" gradientUnits="userSpaceOnUse">
<stop stop-color="#D6D6D6"/>
<stop offset="0.12" stop-color="white"/>
<stop offset="1" stop-color="white"/>
</linearGradient>
<linearGradient id="paint29_linear_74_269" x1="297.044" y1="273.57" x2="324.896" y2="273.57" gradientUnits="userSpaceOnUse">
<stop/>
<stop offset="0.05" stop-color="white"/>
<stop offset="0.12" stop-color="white"/>
<stop offset="1" stop-color="white"/>
</linearGradient>
<linearGradient id="paint30_linear_74_269" x1="307.814" y1="242.912" x2="316.21" y2="242.912" gradientUnits="userSpaceOnUse">
<stop/>
<stop offset="0.05" stop-color="white"/>
<stop offset="0.12" stop-color="white"/>
<stop offset="1" stop-color="white"/>
</linearGradient>
<linearGradient id="paint31_linear_74_269" x1="-1379.47" y1="209.047" x2="-1406.27" y2="181.403" gradientUnits="userSpaceOnUse">
<stop stop-color="#D6D6D6"/>
<stop offset="0.12" stop-color="white"/>
<stop offset="1" stop-color="white"/>
</linearGradient>
<linearGradient id="paint32_linear_74_269" x1="278.071" y1="279.963" x2="293.017" y2="279.963" gradientUnits="userSpaceOnUse">
<stop/>
<stop offset="0.05" stop-color="white"/>
<stop offset="0.12" stop-color="white"/>
<stop offset="1" stop-color="white"/>
</linearGradient>
<linearGradient id="paint33_linear_74_269" x1="-1391.63" y1="-328.334" x2="-1396.46" y2="-353.101" gradientUnits="userSpaceOnUse">
<stop stop-color="#D6D6D6"/>
<stop offset="0.12" stop-color="white"/>
<stop offset="1" stop-color="white"/>
</linearGradient>
<linearGradient id="paint34_linear_74_269" x1="30.7227" y1="527.893" x2="19.3199" y2="560.876" gradientUnits="userSpaceOnUse">
<stop stop-color="#D6D6D6"/>
<stop offset="0.12" stop-color="white"/>
<stop offset="1" stop-color="white"/>
</linearGradient>
<linearGradient id="paint35_linear_74_269" x1="-843.018" y1="-894.413" x2="-839.646" y2="-898.557" gradientUnits="userSpaceOnUse">
<stop stop-color="white"/>
<stop offset="0.12" stop-color="white"/>
<stop offset="1" stop-color="white"/>
</linearGradient>
<linearGradient id="paint36_linear_74_269" x1="222.929" y1="309.898" x2="264.323" y2="309.898" gradientUnits="userSpaceOnUse">
<stop/>
<stop offset="0.05" stop-color="white"/>
<stop offset="0.12" stop-color="white"/>
<stop offset="1" stop-color="white"/>
</linearGradient>
<linearGradient id="paint37_linear_74_269" x1="259.411" y1="303.594" x2="296.732" y2="303.594" gradientUnits="userSpaceOnUse">
<stop/>
<stop offset="0.05" stop-color="white"/>
<stop offset="0.12" stop-color="white"/>
<stop offset="1" stop-color="white"/>
</linearGradient>
</defs>
</svg>
